<svg width="29" height="36" viewBox="0 0 29 36" fill="none" xmlns="http://www.w3.org/2000/svg">
<g clip-path="url(#clip0_7:22)">
<path d="M2.85766 19.5726C1.5454 17.7963 0.753689 15.6992 0.568924 13.5101C0.381149 11.3019 0.821984 9.12553 1.89143 6.98101C2.96087 4.83649 4.44007 3.15737 6.32901 1.94366C8.20064 0.745605 10.3708 0.0776428 12.602 0.0128558C14.8951 -0.0716512 17.1752 0.434166 19.4421 1.53031C20.5949 2.08144 22.2401 2.93386 23.3593 3.51622C23.58 3.63065 23.8301 3.67844 24.0783 3.6536C24.3265 3.62877 24.5617 3.53242 24.7546 3.3766L28.9403 0.00918162C28.9469 0.00459566 28.9549 0.00224694 28.9629 0.00248891C28.971 0.00273087 28.9788 0.00555043 28.9851 0.0105233C28.9914 0.0154962 28.9959 0.0223533 28.9979 0.0300629C28.9999 0.0377725 28.9994 0.0459175 28.9963 0.0532722L24.4113 9.25535C24.4095 9.25981 24.4068 9.26386 24.4033 9.26723C24.3998 9.2706 24.3957 9.27324 24.3912 9.27496C24.3866 9.27668 24.3817 9.27746 24.3769 9.27725C24.372 9.27704 24.3672 9.27584 24.3628 9.27372C23.9394 9.06429 19.6567 6.9406 17.5619 5.93019C16.299 5.29205 14.8894 4.98817 13.4713 5.04837C12.1324 5.11158 10.8391 5.54658 9.74066 6.30312C8.58198 7.11093 7.65585 8.20092 7.05275 9.46662C6.40498 10.7105 6.09584 12.0987 6.15553 13.4954C6.22001 14.8139 6.66166 16.0877 7.42954 17.1696C8.24975 18.3108 9.35647 19.2229 10.6416 19.8169C12.2286 20.6152 14.0489 20.8426 15.788 20.4599C16.2704 20.3535 16.7754 20.4211 17.2115 20.6503C17.6476 20.8795 17.9857 21.2552 18.1644 21.7091L18.3882 22.2768C18.5085 22.5816 18.5594 22.9087 18.5374 23.235C18.5154 23.5613 18.4211 23.8789 18.261 24.1654C18.101 24.4519 17.8791 24.7004 17.6111 24.8934C17.343 25.0863 17.0352 25.2191 16.7095 25.2823C15.7878 25.4547 14.8483 25.5164 13.9115 25.466C11.93 25.3501 9.99406 24.8336 8.22416 23.9486C6.09216 22.9545 4.24712 21.45 2.85766 19.5726Z" fill="black"/>
<path d="M26.1424 16.4274C27.4554 18.2033 28.2472 20.3006 28.4311 22.4899C28.6201 24.6944 28.1793 26.8726 27.1086 29.0245C26.0379 31.1764 24.5587 32.8524 22.671 34.0527C20.7994 35.2507 18.6292 35.9187 16.398 35.9835C14.1061 36.068 11.8261 35.5622 9.55789 34.466C8.40513 33.9149 6.75992 33.0625 5.64073 32.4801C5.41993 32.3659 5.16988 32.3183 4.92177 32.3431C4.67366 32.3679 4.43845 32.4641 4.24548 32.6197L0.0615866 35.9926C0.0551038 35.9992 0.0463715 36.0031 0.0370981 36.0037C0.0278247 36.0042 0.0186774 36.0014 0.0114459 35.9956C0.00421432 35.9899 -0.000581099 35.9817 -0.00200222 35.9726C-0.00342335 35.9636 -0.00136791 35.9543 0.00376195 35.9467L4.5887 26.7446C4.59088 26.7403 4.59392 26.7364 4.59764 26.7332C4.60136 26.73 4.60569 26.7275 4.61037 26.726C4.61506 26.7245 4.62001 26.7239 4.62493 26.7242C4.62985 26.7246 4.63466 26.7259 4.63906 26.7281C5.06062 26.9357 9.34524 29.0594 11.4381 30.0716C12.7015 30.7084 14.1109 31.0115 15.5288 30.9516C16.8675 30.8881 18.1608 30.4531 19.2594 29.6969C20.4181 28.8891 21.3442 27.7991 21.9473 26.5334C22.5956 25.2897 22.9035 23.9012 22.8408 22.5046C22.7769 21.1859 22.3352 19.9121 21.5668 18.8304C20.7476 17.689 19.6414 16.7768 18.3566 16.1831C16.7693 15.3854 14.9491 15.1586 13.2102 15.5419C12.7274 15.6479 12.222 15.58 11.7856 15.3504C11.3493 15.1209 11.011 14.745 10.8319 14.2909L10.6081 13.7232C10.4878 13.4184 10.4369 13.0913 10.4589 12.765C10.4809 12.4387 10.5752 12.1211 10.7353 11.8346C10.8953 11.5481 11.1172 11.2996 11.3852 11.1066C11.6533 10.9136 11.9611 10.7809 12.2868 10.7177C13.2081 10.5422 14.1477 10.4775 15.0848 10.5248C17.0663 10.6404 19.0023 11.157 20.7721 12.0423C23.0167 13.1274 24.8068 14.5891 26.1424 16.4274Z" fill="black"/>
</g>
<defs>
<clipPath id="clip0_7:22">
<rect width="29" height="36" fill="white"/>
</clipPath>
</defs>
</svg>
